<?xml version="1.0" encoding="UTF-8"?>
<svg width="200" height="200" version="1.1" viewBox="0 0 200 200" xmlns="http://www.w3.org/2000/svg">
 <g fill="#2c3e50">
  <path d="m100 20c-44.183 0-80 35.817-80 80s35.817 80 80 80 80-35.817 80-80-35.817-80-80-80zm0 10c38.66 0 70 31.34 70 70s-31.34 70-70 70-70-31.34-70-70 31.34-70 70-70z"/>
  <path d="m100 50c-27.614 0-50 22.386-50 50s22.386 50 50 50 50-22.386 50-50-22.386-50-50-50zm0 20c16.569 0 30 13.431 30 30s-13.431 30-30 30-30-13.431-30-30 13.431-30 30-30z"/>
  <circle cx="100" cy="100" r="15"/>
 </g>
 <text x="50" y="180" fill="#2c3e50" font-family="Arial" font-size="24" font-weight="bold">ESGC</text>
</svg> 